<svg xmlns="http://www.w3.org/2000/svg" viewBox="0 0 324.14 54.75"><defs><style>.cls-1{fill:#3b3c43;}.cls-2{fill:#e73b2b;}</style></defs><title>logo-full</title><g id="Layer_2" data-name="Layer 2"><g id="Layer_1-2" data-name="Layer 1"><path class="cls-1" d="M94.43,17.4l-.45.91a9.93,9.93,0,0,0-3.52-.73,5.82,5.82,0,1,0,0,11.65A9.88,9.88,0,0,0,94,28.49l.45.91a9.36,9.36,0,0,1-3.95.93,6.93,6.93,0,1,1,0-13.85,9.37,9.37,0,0,1,3.95.92"/><polygon class="cls-1" points="107.73 16.65 107.73 17.79 99.64 17.79 99.64 23.04 106.58 23.04 106.58 24.14 99.64 24.14 99.64 29.02 108.02 29.02 108.02 30.15 98.43 30.15 98.43 16.65 107.73 16.65"/><polygon class="cls-1" points="113.3 16.65 117.76 23.19 121.18 28.3 121.22 28.3 121.14 22.25 121.14 16.65 122.35 16.65 122.35 30.15 121.08 30.15 116.58 23.44 113.24 18.47 113.21 18.47 113.26 23.35 113.26 30.15 112.05 30.15 112.05 16.65 113.3 16.65"/><polygon class="cls-1" points="136.72 16.65 136.72 17.79 131.85 17.79 131.85 30.15 130.64 30.15 130.64 17.79 125.77 17.79 125.77 16.65 136.72 16.65"/><path class="cls-1" d="M141.36,23.17H146a2.7,2.7,0,1,0-.29-5.38h-4.36ZM146,16.65a3.84,3.84,0,0,1,3.87,3.8,3.77,3.77,0,0,1-3,3.68l3.42,6H149l-3.32-5.88h-4.32v5.88h-1.21V16.65Z"/><path class="cls-1" d="M155.31,16.65v9c0,1.81,1.8,3.34,3.93,3.34s3.93-1.52,3.93-3.34v-9h1.19v8a14.09,14.09,0,0,1-.08,1.6c-.22,2.22-2.38,3.91-5,3.91s-4.81-1.7-5-3.91a13.42,13.42,0,0,1-.08-1.6v-8Z"/><polygon class="cls-1" points="170.9 16.65 176.05 27.92 176.09 27.92 181.27 16.65 182.95 16.65 182.95 30.15 181.76 30.15 181.74 18.41 181.7 18.41 176.62 29.36 175.55 29.36 170.44 18.37 170.43 18.37 170.43 30.15 169.22 30.15 169.22 16.65 170.9 16.65"/><polygon class="cls-1" points="203.29 16.65 203.29 17.79 195.2 17.79 195.2 23.13 202.13 23.13 202.13 24.23 195.2 24.23 195.2 30.15 193.99 30.15 193.99 16.65 203.29 16.65"/><path class="cls-1" d="M214.68,15.82a.79.79,0,0,1-.82-.79.83.83,0,0,1,.82-.83.81.81,0,1,1,0,1.62m-3.73,0a.79.79,0,0,1-.82-.79.83.83,0,0,1,.82-.83.81.81,0,1,1,0,1.62m1.88,13.4a5.69,5.69,0,0,0,5.71-5.82,5.72,5.72,0,1,0-11.43,0,5.7,5.7,0,0,0,5.73,5.82m0-12.75a6.92,6.92,0,1,1-7,6.93,6.94,6.94,0,0,1,7-6.93"/><path class="cls-1" d="M225.13,23.17h4.66a2.7,2.7,0,1,0-.29-5.38h-4.36Zm4.66-6.52a3.84,3.84,0,0,1,3.87,3.8,3.77,3.77,0,0,1-3,3.68l3.42,6h-1.35l-3.32-5.88h-4.32v5.88h-1.21V16.65Z"/><polygon class="cls-2" points="86.58 35.95 90.54 42.06 92.34 45.17 92.38 45.17 92.26 41.48 92.26 35.95 95 35.95 95 49.45 92.19 49.45 88.2 42.99 86.4 40.04 86.36 40.04 86.48 43.2 86.48 49.45 83.74 49.45 83.74 35.95 86.58 35.95"/><path class="cls-2" d="M106.58,35a1.29,1.29,0,0,1-1.35-1.29,1.36,1.36,0,0,1,1.35-1.33,1.32,1.32,0,1,1,0,2.62m-4,8.89h3.6l-1.82-5.54ZM102,35a1.29,1.29,0,0,1-1.35-1.29A1.36,1.36,0,0,1,102,32.36,1.32,1.32,0,1,1,102,35m3.71.67,5.12,13.79H108L106.79,46h-4.92l-1.17,3.41H97.8l5.12-13.79Z"/><path class="cls-2" d="M116.39,41.81h3.48a1.74,1.74,0,0,0,1.49-1.72c0-1.41-1.27-1.64-2.35-1.64h-2.62Zm3.48-5.87A4.19,4.19,0,0,1,124,40.1a4.13,4.13,0,0,1-2.58,3.84l3.11,5.52h-3.17l-2.74-5.21h-2.28v5.21h-2.74V35.95Z"/><rect class="cls-2" x="127.95" y="35.95" width="2.73" height="13.5"/><polygon class="cls-2" points="137.93 35.95 141.9 42.06 143.7 45.17 143.74 45.17 143.62 41.48 143.62 35.95 146.36 35.95 146.36 49.45 143.54 49.45 139.56 42.99 137.76 40.04 137.72 40.04 137.84 43.2 137.84 49.45 135.1 49.45 135.1 35.95 137.93 35.95"/><path class="cls-2" d="M162,36.84l-1.05,2a9,9,0,0,0-3.44-.75A4.41,4.41,0,0,0,153,42.7a4.3,4.3,0,0,0,4.51,4.63,3.9,3.9,0,0,0,2.56-.79V44.2h-3.46V42h6v5.58a7,7,0,0,1-5,2.16,7.12,7.12,0,0,1-7.48-7,7.25,7.25,0,0,1,7.48-7A9.68,9.68,0,0,1,162,36.84"/><path class="cls-2" d="M165.68,48.54l1-2.16a9.49,9.49,0,0,0,3.93,1c1.6,0,2.6-.54,2.6-1.47,0-2.49-7.41-1.12-7.41-6.15,0-2.53,1.9-4.07,5-4.07a11.52,11.52,0,0,1,4.61,1l-1,2.14a10.23,10.23,0,0,0-3.52-.77c-1.46,0-2.4.56-2.4,1.46,0,2.53,7.38,1.31,7.38,6.15,0,2.57-2,4.07-5.29,4.07a10.74,10.74,0,0,1-4.94-1.2"/><polygon class="cls-2" points="182.26 35.95 182.26 46.94 188.66 46.94 188.66 49.45 179.52 49.45 179.52 35.95 182.26 35.95"/><rect class="cls-2" x="191.84" y="35.95" width="2.73" height="13.5"/><polygon class="cls-2" points="200.24 35.95 203.54 46.03 203.58 46.03 206.87 35.95 209.74 35.95 204.85 49.45 202.25 49.45 197.37 35.95 200.24 35.95"/><path class="cls-2" d="M211.8,48.54l1-2.16a9.48,9.48,0,0,0,3.93,1c1.6,0,2.6-.54,2.6-1.47,0-2.49-7.4-1.12-7.4-6.15,0-2.53,1.89-4.07,5-4.07a11.5,11.5,0,0,1,4.61,1l-1,2.14a10.24,10.24,0,0,0-3.52-.77c-1.47,0-2.4.56-2.4,1.46,0,2.53,7.39,1.31,7.39,6.15,0,2.57-2,4.07-5.3,4.07a10.73,10.73,0,0,1-4.94-1.2"/><polygon class="cls-2" points="228.37 35.95 228.37 41.62 234.04 41.62 234.04 35.95 236.78 35.95 236.78 49.45 234.04 49.45 234.04 44.13 228.37 44.13 228.37 49.45 225.64 49.45 225.64 35.95 228.37 35.95"/><rect class="cls-2" x="241.2" y="35.95" width="2.74" height="13.5"/><path class="cls-2" d="M247.61,48.54l1-2.16a9.47,9.47,0,0,0,3.93,1c1.6,0,2.6-.54,2.6-1.47,0-2.49-7.41-1.12-7.41-6.15,0-2.53,1.9-4.07,5-4.07a11.48,11.48,0,0,1,4.61,1l-1,2.14a10.24,10.24,0,0,0-3.52-.77c-1.46,0-2.4.56-2.4,1.46,0,2.53,7.39,1.31,7.39,6.15,0,2.57-2,4.07-5.29,4.07a10.73,10.73,0,0,1-4.95-1.2"/><polygon class="cls-2" points="271.36 35.95 271.36 38.46 267.16 38.46 267.16 49.45 264.44 49.45 264.44 38.46 260.22 38.46 260.22 35.95 271.36 35.95"/><path class="cls-2" d="M280.57,47.33c2.46,0,4.11-1.95,4.11-4.67s-1.66-4.57-4.2-4.57-4.12,1.93-4.12,4.57,1.7,4.67,4.22,4.67m0-11.67a7,7,0,0,1,7,7,7.07,7.07,0,1,1-7-7"/><path class="cls-2" d="M294,41.81h3.48A1.74,1.74,0,0,0,299,40.1c0-1.41-1.27-1.64-2.34-1.64H294Zm3.48-5.87a4.19,4.19,0,0,1,4.18,4.15,4.13,4.13,0,0,1-2.58,3.84l3.11,5.52H299l-2.74-5.21H294v5.21h-2.74V35.95Z"/><rect class="cls-2" x="305.56" y="35.95" width="2.74" height="13.5"/><path class="cls-2" d="M317.6,38.34l1.82,5.54h-3.59Zm-1.39-2.68-5.12,13.79H314L315.16,46h4.92l1.17,3.41h2.89L319,35.66Z"/><rect class="cls-1" x="7.67" y="9.19" width="3.16" height="45.56"/><path class="cls-2" d="M26.71,37.2h5.2v5.1h-5.2Zm5.2-6.62h-5.2v-5.1h5.2Z"/><rect class="cls-1" x="16.94" y="9.19" width="1.56" height="45.56"/><rect class="cls-1" y="9.19" width="1.56" height="45.56"/><rect class="cls-1" x="21.58" y="9.19" width="0.76" height="45.56"/><rect class="cls-1" x="4.64" y="9.19" width="0.76" height="45.56"/><rect class="cls-2" x="12.7" width="1.56" height="54.75"/><polygon class="cls-2" points="51.73 52.32 58.46 54.75 74.92 11.62 68.19 9.19 51.73 52.32"/><polygon class="cls-1" points="42.33 52.32 49.06 54.75 65.51 11.62 58.78 9.19 42.33 52.32"/><polygon class="cls-1" points="32.92 52.32 39.65 54.75 56.1 11.62 49.37 9.19 32.92 52.32"/></g></g></svg>